<svg width="69" height="62" viewBox="0 0 69 62" fill="none" xmlns="http://www.w3.org/2000/svg">
<path d="M55.2627 40.8608C55.2168 40.6316 55.1529 40.3135 55.1207 40.1541C55.0885 39.9946 55.0566 39.654 55.0497 39.3972C55.0429 39.1403 55.0214 38.9046 55.0021 38.8733C54.9436 38.7786 55.1141 37.3025 55.2727 36.5296C55.4866 35.4877 56.2772 33.5754 56.6073 33.3014C56.6713 33.2483 56.7866 33.0816 56.8634 32.9311C57.0338 32.597 58.4128 31.1528 58.8353 30.8659C59.0037 30.7515 59.2048 30.6009 59.282 30.5311C59.3593 30.4613 59.4626 30.4043 59.5116 30.4043C59.5606 30.4043 59.6115 30.3798 59.6248 30.3499C59.6748 30.2374 61.1755 29.4619 61.3433 29.4619C61.383 29.4619 61.4961 29.4313 61.5946 29.3938L61.7737 29.3257L61.1568 27.7084C59.4861 23.3287 59.4293 23.1288 59.3492 21.3431C59.2318 18.726 60.2218 16.1755 62.1248 14.1925L62.6218 13.6747L61.8729 13.5518C60.2359 13.2831 58.7751 12.5999 57.565 11.5371C56.2713 10.4007 55.2155 8.6913 54.8912 7.2077C54.7202 6.42557 53.8799 1.3905 53.9146 1.35583C53.9999 1.27051 56.2005 1.30491 56.7856 1.40072C57.4465 1.50893 58.6234 1.88878 59.1945 2.17817C61.5568 3.37527 63.2775 5.63249 63.7745 8.1863C63.8901 8.78033 64.4695 12.2528 64.4695 12.3517C64.4695 12.3818 64.7223 12.2841 65.0313 12.1346C65.3403 11.9851 65.6193 11.8871 65.6514 11.9168C65.7057 11.9672 65.9113 12.4995 67.3332 16.2702C68.0328 18.1254 68.1867 18.7041 68.3146 19.961C68.6211 22.9735 67.2865 26.2221 64.9044 28.2614C64.725 28.415 64.6351 28.5207 64.7046 28.4963C65.0016 28.3921 67.8693 27.6497 67.975 27.6497C68.1035 27.6497 68.1129 27.6816 68.2724 28.6592C68.4013 29.4492 68.4164 30.6121 68.3092 31.4935C68.2258 32.179 67.986 33.2254 67.8362 33.5575C67.7822 33.6771 67.6689 33.9544 67.5843 34.1737C67.2471 35.0476 66.4845 36.2237 65.7541 36.9962C65.3783 37.3937 64.4858 38.181 64.2096 38.3586C64.1333 38.4077 63.9537 38.5255 63.8105 38.6204C63.1711 39.0443 62.2954 39.4334 61.3524 39.7126C60.3323 40.0147 55.5739 41.2776 55.456 41.2776C55.3804 41.2776 55.3202 41.1479 55.2627 40.8608Z" fill="url(#paint0_linear_5_22)"/>
<path d="M12.7811 41.3232C12.7631 41.3056 11.5088 40.961 9.99379 40.5573C6.78853 39.7033 6.42466 39.586 5.42697 39.0853C4.6426 38.6917 4.31806 38.4757 3.58146 37.857C2.42496 36.8856 1.6089 35.846 1.00323 34.5724C0.103887 32.6813 -0.17498 30.9259 0.103251 28.9073C0.258071 27.7841 0.293568 27.6497 0.435404 27.6497C0.54114 27.6497 3.40885 28.3921 3.70586 28.4963C3.77535 28.5207 3.68541 28.415 3.506 28.2614C2.85346 27.7028 2.02856 26.7477 1.56885 26.0187C0.450614 24.2452 -0.106834 21.9528 0.095833 19.961C0.223724 18.7041 0.377588 18.1254 1.07718 16.2702C2.49908 12.4995 2.70475 11.9672 2.759 11.9168C2.79109 11.8871 3.07694 11.9883 3.39421 12.1418C3.71149 12.2954 3.97746 12.4141 3.98527 12.4058C3.99307 12.3975 4.13354 11.5752 4.29742 10.5785C4.80302 7.50337 4.86509 7.25631 5.42691 6.08303C6.20718 4.45352 7.62242 3.0224 9.28843 2.17817C9.85951 1.88878 11.0364 1.50893 11.6973 1.40072C12.2824 1.30491 14.483 1.27051 14.5683 1.35583C14.603 1.39051 13.7627 6.42557 13.5917 7.2077C13.2674 8.6913 12.2116 10.4007 10.9179 11.5371C9.69494 12.6112 8.22235 13.2948 6.56731 13.5565L5.78941 13.6795L6.28599 14.1949C7.73099 15.6947 8.59749 17.415 8.95542 19.4946C9.07848 20.2097 9.09732 20.5387 9.06122 21.3431C8.98114 23.1276 8.92326 23.3316 7.26012 27.6914L6.64968 29.2916L7.1619 29.4891C7.76417 29.7214 8.89805 30.3352 9.19323 30.5889C9.30705 30.6867 9.42761 30.7667 9.46114 30.7667C9.60554 30.7667 11.173 32.3777 11.5649 32.9289C12.2658 33.9148 12.9812 35.5275 13.188 36.5882C13.3382 37.3586 13.3798 37.7255 13.3987 38.4488C13.4317 39.7134 13.1724 41.2861 12.923 41.3341C12.8629 41.3457 12.7991 41.3407 12.7811 41.3232Z" fill="url(#paint1_linear_5_22)"/>
<path d="M52.3023 49.8776H5.79408C3.63654 49.8776 1.88751 51.6081 1.88751 53.7428V57.4419C1.88751 59.5766 3.63654 61.3071 5.79408 61.3071H52.3023C54.4599 61.3071 56.2089 59.5766 56.2089 57.4419V53.7428C56.2089 51.6081 54.4599 49.8776 52.3023 49.8776Z" fill="#E9C744"/>
<path d="M64.3391 46.3537H16.2736C14.0438 46.3537 12.2363 48.0762 12.2363 50.201V53.883C12.2363 56.0078 14.0438 57.7303 16.2736 57.7303H64.3391C66.5689 57.7303 68.3765 56.0078 68.3765 53.883V50.201C68.3765 48.0762 66.5689 46.3537 64.3391 46.3537Z" fill="#FAF033"/>
<ellipse cx="33.7237" cy="22.3671" rx="20.5058" ry="21.06" fill="white"/>
<path d="M34.1926 43.0835C45.6706 43.0835 54.9754 33.7786 54.9754 22.3006C54.9754 10.8225 45.6706 1.5177 34.1926 1.5177C22.7145 1.5177 13.4097 10.8225 13.4097 22.3006C13.4097 33.7786 22.7145 43.0835 34.1926 43.0835Z" stroke="#2667DC" stroke-width="3.03541" stroke-linejoin="round"/>
<circle cx="34.1893" cy="22.3006" r="15.795" fill="#2667DC"/>
<path d="M33.45 14.8401C31.8831 13.8365 30.0608 13.3043 28.2 13.3071C27.093 13.306 25.9939 13.4937 24.95 13.8621C24.8038 13.9138 24.6772 14.0095 24.5877 14.1362C24.4981 14.2628 24.45 14.414 24.45 14.5691V28.8191C24.45 28.9391 24.4788 29.0573 24.534 29.1638C24.5891 29.2704 24.6691 29.3621 24.767 29.4314C24.865 29.5007 24.9781 29.5454 25.097 29.5619C25.2158 29.5784 25.3369 29.5661 25.45 29.5261C26.3333 29.2146 27.2633 29.0559 28.2 29.0571C30.195 29.0571 32.023 29.7641 33.45 30.9431V14.8401ZM34.95 30.9431C36.4264 29.7212 38.2836 29.0541 40.2 29.0571C41.166 29.0571 42.09 29.2231 42.95 29.5271C43.0632 29.5671 43.1843 29.5794 43.3033 29.5629C43.4222 29.5463 43.5354 29.5015 43.6334 29.4321C43.7314 29.3627 43.8113 29.2709 43.8664 29.1642C43.9215 29.0575 43.9501 28.9392 43.95 28.8191V14.5691C43.95 14.414 43.9019 14.2628 43.8123 14.1362C43.7228 14.0095 43.5962 13.9138 43.45 13.8621C42.4061 13.4937 41.307 13.306 40.2 13.3071C38.3392 13.3043 36.5169 13.8365 34.95 14.8401V30.9431Z" fill="#E5E7EA"/>
<defs>
<linearGradient id="paint0_linear_5_22" x1="61.147" y1="1.30717" x2="61.147" y2="41.2776" gradientUnits="userSpaceOnUse">
<stop stop-color="#0D7739"/>
<stop offset="1" stop-color="#14A852"/>
</linearGradient>
<linearGradient id="paint1_linear_5_22" x1="7.28467" y1="1.30717" x2="7.28467" y2="41.3404" gradientUnits="userSpaceOnUse">
<stop stop-color="#0D7739"/>
<stop offset="1" stop-color="#14A852"/>
</linearGradient>
</defs>
</svg>
